<svg width="960" height="540" fill="none" xmlns="http://www.w3.org/2000/svg"><g clip-path="url(#a)" clip-rule="evenodd" stroke="#E3DDEE" stroke-miterlimit="10" stroke-linejoin="round"><path d="M897.7 313.3a73.9 73.9 0 0 0-1 36.8l8.8-16.6c-4.3-5-7-11.4-7.6-18.5l-.2-1.7Zm-1 .8c-6.5 6-13.2 13-14.8 22.4 1.2.8 2.1 2 3.2 3.2l3.8 3.7c2.3 2.3 4.6 4.6 7 6.7-.5-2.1-.8-4.4-1.1-6.5a74 74 0 0 1 1.5-27.9l.5-1.6Zm-15 22.9v.7c-.4 2.7 0 5.4 0 8 .1 2.8 0 5.4-.5 8-.7 2.7-1.6 5.3-2.2 8-.4 2.1-.5 4-.4 6.1a249.4 249.4 0 0 0 26 11.8l1.4.7h.2c-1.6-3.2-2.8-6.2-4-9.2-2.8-6.5-4.8-13.3-6.2-20.4a246.5 246.5 0 0 1-11.5-10.8c-1-1-2-1.9-2.8-3Zm24-3-9 17a118.4 118.4 0 0 0 10.6 29.6l.3-.1.2-.5 2.6-6.5 5.2-13 5.6-14.2c-3.7-2.7-7.7-5.3-11.2-8a57.8 57.8 0 0 1-4.2-4.3Zm16 12.7c-3.7 9-7.1 18-10.7 27-1 2.2-1.8 4.4-2.7 6.7-.1.4-.4.8-.7 1 2.3 4.5 5 9.2 7.7 13.6 4.4 6.6 9.1 13 14.3 18.8a3090.8 3090.8 0 0 1 8.5-38.3c-1-1.1-1.7-2.3-2.5-3.4-2.5-4.3-3.2-9.2-5-13.8a27.2 27.2 0 0 0-9-11.6Zm-43 21.6.1 1.4c.5 2.7 1.4 5.2 2.8 7.4 1.4 2.4 3 4.6 4.3 7 2 4.2 2.7 8.9 4.4 13l14.7 6.7 15.9 6.9 7.7 3.1a145.3 145.3 0 0 1-22-32.8l-.4-.1-1.8-.8a245.5 245.5 0 0 1-25.7-11.8Zm-47.1 32.1 2.8 5 4.3 6 5 5.7a101 101 0 0 1-3-13.8 21.4 21.4 0 0 1-3 0c-2.3-.3-4.3-1.2-6-2.8h-.1Zm-.5.7a76.5 76.5 0 0 0 6.4 20l6.3-2.9-4.7-5c-3-3.6-6-7.7-8-12.1Zm59.2-3.6.3.7c2.4 5.1 7.5 8 11.6 11.4 2.3 1.7 4.1 3.6 5.7 5.9 1.8 2.2 3.6 4.7 5.8 6.6 4.4 3.8 9.9 6 15.4 7.5a71.3 71.3 0 0 0 15.7 2.8c1 .2 1.8.2 2.7.2-4-3.4-8-7-11.9-11-2.2-2.1-4.1-4.4-6.2-6.6-10.6-4.3-21-8.8-31.4-13.7l-7.7-3.8Zm-41.1 4.3a22 22 0 0 0-5.4.8c-.9.3-1.9.4-2.8.6.7 5 1.7 9.8 3.2 14.5 1.5 1.7 3 3.1 4.6 4.6 5 4.6 10.5 8.5 16.3 12l-3-7.1-3.4-8.3c-2.1-5.6-4.4-11-6.1-16.5-.6-.4-1.1-.5-1.8-.5l-1.6-.1Zm-5 16.8-6.5 3 3.3 6.6a42.4 42.4 0 0 0 11 14.4c2.3-1.3 4.7-2.5 6.9-3.9 2.1-1.1 4.3-2.6 6.6-3.8a93.6 93.6 0 0 1-21.4-16.3Zm8.7-16.2c2.3 5.3 4.2 10.8 6.4 16.2 1 2.7 2.2 5.4 3.4 8.2 1 2.5 2 5.3 3.3 7.8a87.1 87.1 0 0 0 22.6 9c-.5-1.4-1.2-2.6-1.8-3.9l-1.8-4-3.6-8.1c-1-2.7-2.4-5.5-3.3-8.4a37 37 0 0 1-7.9-5.2c-4-3.4-7.9-7.3-12.5-9.8-1.5-.9-3.2-1.4-4.8-1.8Zm97.5 37.7c-5 0-10.3 1.5-15.2 2.3-2.3.4-4.7.7-7 .7-1.6 0-3.2-.1-4.7-.5h-.6l1 1 1 1.1 1 1v.4l1.4-.1c9.4-1.1 18.6-3 27.7-5.4-1.5-.3-3-.5-4.6-.5Zm-71.8-20.6c.8 1.6 1.4 3.5 2.2 5.3 1 2 1.8 4.2 2.7 6.3l5.6 12.6c6.4 1.7 13 2.5 19.6 2.9-3.8-6.4-7.6-12.8-11-19.3-4.3-2.4-9-4-13.7-5.7l-5.4-2.1Zm19.6 8.2c3.4 6.5 7 12.8 11 18.9h4.3c3.8 0 7.7-.2 11.6-.5-.1-.7-1.4-1.7-1.7-2.2-.7-.6-1.1-1-1.6-1.8-4-1-7.7-3.2-11.2-5.6-4.2-3-8-6.2-12.3-8.8Zm-32.2 7.5c-2.2 1.5-4.5 2.6-6.8 3.8-2.4 1.2-4.5 2.6-6.7 3.8 4.3 3.6 9.7 6 14.7 8.5 3.1 1.5 6.3 3 9.3 4.7l6.2-5.8c1-1.2 2.3-2.3 3.3-3.3l1.4-1.5.7-.8.3-.3c-7.7-2.1-15.3-5-22.4-9Zm90.5 5.9a184.5 184.5 0 0 1-30.8 5.8l-.4.6-1.3 3a303 303 0 0 1-5.5 11h1.4c2.3-.3 4.5-1 6.7-2 4.5-2 8.6-5.3 12.7-8.2 4.7-3 9.7-6.3 14.8-8.9.9-.4 1.8-.8 2.4-1.3Zm-31.5 5.8a118.6 118.6 0 0 1-16 .4c-1.8 2.5-3.9 4.8-5.7 7.3l-3 3.7-2.3 3.2c2.4-.6 4.7-1.3 7-1.4h1.4c2 0 4 .4 5.9.6 1.8.4 3.7.8 5.6.8 1.5-3.4 3.3-6.7 4.8-10l1.3-2.5.5-1.2c.1-.3.4-.5.5-.9Zm-35.9-2.5c-3.8 4-7.8 8-12 11.8l6.1 3.2c2.4 1.2 5 2.4 7.8 2.8l1.6.1c1.6 0 3.3-.3 4.9-.7 1-1 1.6-2.3 2.5-3.5l3-4 5.5-7-5.2-.2c-4.8-.5-9.5-1.3-14.2-2.5Zm8.9-133c.3 0 .7.2.7.5a31.5 31.5 0 0 0 10.5 24.6c7.1 6.3 16.9 10.1 21.5 19.1 2.2 4.4 2.8 9.3 4.9 13.7 2.2 4.8 6 8.2 9.1 12.2a49.3 49.3 0 0 1 6.1 47.7l-1.3 2.9c-.1.2-.3.3-.5.3-.4 0-.7-.3-.4-.8a48.2 48.2 0 0 0-3.9-48.2c-1.9-2.6-4.2-5-6.4-7.5l-4.1 18.8-4.3 19.4 3.9 4.4c6.9 7.2 14.4 13.8 22.5 19.7.9.7 2 1.4 2.8 2.2.9.5.5 1.2 0 1.2l-.3-.1a1.1 1.1 0 0 1-.9 0h-.4c-5 2.8-10 5.8-14.9 9-4.4 2.8-8.5 6.1-13 8.8a23 23 0 0 1-13.8 3.2c-2.5-.4-5-1-7.7-1.3h-1.3c-2 0-4 .3-6 .8-2.4.5-4.7 1.2-7.1 1.4h-.7a17 17 0 0 1-6.6-1.4c-2.7-1-5.4-2.5-8-3.9l-8.3-4.3c-5.4-2.6-11-5.3-16.1-8.5a48.6 48.6 0 0 1-7-5.8 96.1 96.1 0 0 1-17-37.6l-.7-4.2c0-.4.2-.6.5-.6.2 0 .4.1.5.4a9 9 0 0 0 8.2 5.4c1.4 0 2.8-.3 4.1-.5 2.2-.5 4.4-1.1 6.7-1.1 2.2 0 4.2.6 6.2 1.3 4.5 1.8 8.4 5.1 12.1 8.3 2.1 1.8 4.3 3.8 6.7 5.3 1 .8 2.2 1.4 3.3 2a33 33 0 0 0 3.9 1.8c4.8 1.8 9.9 3 14.5 5.3 4.4 2.2 8.4 5.3 12.3 8.3 4 2.9 8 5.6 12.5 7.3 2.4.7 4.9 1 7.4 1 1.6 0 3.3 0 5-.3 5.5-.8 11.1-2.7 16.8-2.7 1.8 0 3.7.2 5.5.7l.4.1c-2.7-2-5.4-4-7.9-6.1a67.3 67.3 0 0 1-31.1-7.6 27.4 27.4 0 0 1-6.6-5.5c-2-2.3-3.7-4.8-6-7-3.7-4.1-8.8-6.5-12.5-10.7-3.3-4.3-4.1-9.5-5.8-14.5-1.7-5.4-5.9-9.4-7.7-14.8a22.6 22.6 0 0 1 .3-15.6 33 33 0 0 0 1.6-8.4c.1-2.9-.2-5.8-.2-8.6 0-5.4 1.5-10.3 4.3-14.8s6.5-8.4 10.3-12l3-2.7h.4ZM726 545.8l-.1-.2c.4-8 3.7-15.8 9.6-21.1a32 32 0 0 1 23.8-7.4c9 .2 17.8 2.5 26.7 3.2l5.7.3c6.7 0 13.5-1.3 19-5.5 6.8-5.2 10.3-13.5 16.6-19.3a30.7 30.7 0 0 1 22.3-7.3c4.1.2 8.3.9 12.2 2 4.6 1.2 9.3 2.8 14 3.9 2.3.5 4.7.8 7.1.8 2.6 0 5.2-.4 7.6-1.4a35 35 0 0 0 10.2-7.3c3.1-3 6.2-6 10-8.3 3.8-2.2 8-3.7 12.2-4.6 4-1 8.2-1.3 12.3-1.3 5.5 0 11 .6 16.5 1.5 2.4.3 4.9.8 7.4 1.3.9.2.6 1.4 0 1.4-8.2-1.4-16.4-2.9-24.6-2.9a41.8 41.8 0 0 0-29.5 10.5c-3.2 2.9-6 5.9-9.3 8.3a22.4 22.4 0 0 1-13 4.3c-8.6 0-16.8-4-25.2-5.8-3.3-.7-6.8-1.1-10.2-1.1-5 0-9.9.9-14.3 3.3-7.5 4-11.5 12-16.9 18.3a27 27 0 0 1-9.6 7.4 33.1 33.1 0 0 1-15 2.9c-7.4 0-14.5-1.4-21.7-2.6-4.1-.6-8.4-1.1-12.7-1.1-5 0-9.9.7-14.5 2.8a30 30 0 0 0-16.5 25ZM134.7 78.8l.6-.7c1-1.7.5-4-.7-5.6-2.4-3.4-6.7-3-10.3-2 .3 3.7 1.6 7.7 5 9.2 1.8.8 4 .6 5.4-.9Zm.5.4c-.3.4-.7.6-1.1.9-4 2-7.7-1-9.2-4.7-.6-1.6-1-3-1.2-4.7l-.7.2a71 71 0 0 0-23.3 14.5c-7 6-13.6 12.1-21.3 16.9-6.9 4.3-14.5 7.3-22.4 9.3a114.1 114.1 0 0 1-54.6-1c-.3-.2-.3-.5-.1-.7l.3-.2c17 4 35 5.5 52.1 1.8 8.5-1.9 16.6-5 24-9.6 8.3-5 15.5-12 22.9-18.3a64.2 64.2 0 0 1 23-13.8c-.2-2.6 0-5.4.6-8A58.9 58.9 0 0 1 139 33.5c13.2-13.9 32.2-18.7 47-30.3 2-1.5 3.8-3 5.5-4.9.3 0 .6.3.4.5-13.3 13.6-32 18.5-46.4 30.2a58.6 58.6 0 0 0-21 37.3c-.2 1-.2 2.2-.2 3.3 3.7-1 8-1.1 10.7 2.2 1.7 2.2 2 5.4.2 7.4Z"/></g><defs><clipPath id="a"><path fill="#fff" d="M0 0h960v540H0z"/></clipPath></defs></svg>