<svg width="960" height="540" fill="none" xmlns="http://www.w3.org/2000/svg"><g clip-path="url(#a)" clip-rule="evenodd" stroke="#7A6A95" stroke-miterlimit="10" stroke-linejoin="round"><path d="m761 540-.1-.2a25 25 0 0 1 8.2-17.7 27.5 27.5 0 0 1 20.2-6.2c7.6.1 15.1 2.1 22.7 2.7l4.9.2c5.6 0 11.4-1 16-4.6 5.9-4.3 8.9-11.3 14.2-16.1a26.3 26.3 0 0 1 19-6.2c3.5.2 7 .8 10.3 1.7 4 1 8 2.4 11.9 3.3 2 .4 4 .6 6.1.6 2.2 0 4.4-.3 6.4-1.1 3.3-1.3 6-3.8 8.7-6.2 2.7-2.4 5.3-5 8.4-6.9 3.3-1.8 6.9-3 10.5-3.9 3.4-.8 7-1 10.4-1 4.7 0 9.5.5 14.1 1.2l6.2 1.1c.8.2.6 1.2 0 1.2-7-1.2-13.9-2.4-20.9-2.4-1.5 0-3 0-4.6.2-7.5.7-14.6 3.4-20.5 8.6-2.7 2.3-5 4.9-7.9 7a19.2 19.2 0 0 1-11 3.5c-7.3 0-14.3-3.4-21.4-4.9-2.8-.6-5.8-1-8.7-1-4.2 0-8.4.9-12.1 2.9-6.4 3.4-9.8 10-14.4 15.3-2.3 2.7-5 4.9-8.2 6.2a28.5 28.5 0 0 1-12.8 2.4c-6.2 0-12.3-1.1-18.4-2.1-3.5-.5-7.1-1-10.8-1a30 30 0 0 0-12.3 2.4 25.2 25.2 0 0 0-14 21ZM133.9 79.2l.6-.7c1-1.7.5-4-.7-5.6-2.5-3.3-6.7-2.9-10.3-2 .3 3.8 1.6 7.7 5 9.1 1.7.9 4 .6 5.4-.8Zm.5.4c-.3.3-.7.6-1.2.8-3.9 2-7.7-1-9.2-4.6-.6-1.5-1-3-1.2-4.6l-.7.2a71.3 71.3 0 0 0-23.3 14.3c-7 5.8-13.6 12-21.3 16.7-6.9 4.2-14.5 7.2-22.4 9a115.8 115.8 0 0 1-54.6-1c-.4 0-.4-.4-.2-.6l.4-.1c17 4 35 5.4 52.1 1.7 8.5-1.8 16.6-5 24.1-9.4 8.2-5 15.4-11.8 22.8-18a64.4 64.4 0 0 1 23-13.7c-.2-2.6.1-5.4.7-7.9A57.7 57.7 0 0 1 138 34.5c13.3-13.7 32.3-18.5 47.2-30 1.9-1.4 3.7-3 5.5-4.7.3 0 .5.3.3.5-13.3 13.4-32 18.2-46.4 29.8a58.4 58.4 0 0 0-21.1 36.7l-.1 3.3c3.7-.9 8-1.1 10.7 2.2 1.7 2.1 2 5.3.2 7.3ZM915 361.4a51.8 51.8 0 0 0-.8 26.1l6.4-11.7a23 23 0 0 1-5.5-13.2l-.2-1.2Zm-.7.5c-4.8 4.3-9.6 9.4-10.8 16 1 .6 1.6 1.4 2.3 2.3l2.8 2.6c1.7 1.6 3.3 3.3 5 4.7l-.7-4.6a52 52 0 0 1 1-19.8l.4-1.2Zm-10.9 16.3v.6c-.3 1.9 0 3.8 0 5.7 0 2 0 3.8-.4 5.6-.5 2-1.1 3.8-1.5 5.8-.4 1.5-.4 2.8-.4 4.3a181.6 181.6 0 0 0 18.8 8.4l1 .4h.2l-3-6.5c-1.9-4.6-3.4-9.5-4.4-14.5a177.5 177.5 0 0 1-8.3-7.7l-2-2Zm17.4-2-6.6 12a77.4 77.4 0 0 0 7.6 21h.3l.1-.4 2-4.6 3.7-9.3 4-10c-2.6-2-5.6-3.8-8-5.8-1.1-.9-2.1-2-3.1-3Zm11.4 9c-2.6 6.3-5 12.7-7.7 19.1-.6 1.6-1.2 3.2-2 4.8 0 .3-.2.6-.4.7a117 117 0 0 0 5.6 9.7c3.1 4.7 6.5 9.2 10.3 13.4a2241.1 2241.1 0 0 1 6-27.3c-.6-.7-1.1-1.6-1.6-2.4-1.9-3-2.4-6.5-3.7-9.8-1.3-3.5-3.7-6-6.5-8.2Zm-31 15.4.1 1c.4 1.9 1 3.6 2 5.2 1 1.7 2.2 3.3 3.1 5 1.5 3 2 6.3 3.2 9.3l10.6 4.7 11.5 4.9 5.6 2.2a102.8 102.8 0 0 1-15.8-23.3l-.4-.1-1.3-.6a178.2 178.2 0 0 1-18.6-8.3Zm-34 22.8 2 3.5c1 1.5 2 2.9 3.2 4.3 1.2 1.4 2.3 2.8 3.6 4-1-3.1-1.7-6.5-2.1-9.7a15.7 15.7 0 0 1-2.3 0c-1.6-.2-3.1-1-4.3-2v-.1Zm-.3.5a54 54 0 0 0 4.6 14.2l4.5-2-3.3-3.7a37.1 37.1 0 0 1-5.8-8.5Zm42.7-2.6.3.5c1.7 3.7 5.3 5.7 8.3 8.1 1.6 1.2 3 2.6 4.1 4.2 1.4 1.6 2.6 3.3 4.2 4.7 3.2 2.7 7.1 4.3 11 5.4a52.2 52.2 0 0 0 13.4 2c-3-2.3-5.8-5-8.5-7.7-1.7-1.6-3-3.2-4.5-4.8-7.7-3-15.2-6.2-22.8-9.7l-5.5-2.7Zm-29.7 3a16 16 0 0 0-3.8.6l-2.1.5a67 67 0 0 0 2.3 10.3l3.3 3.3c3.6 3.2 7.7 6 11.8 8.5-.6-1.8-1.5-3.5-2.1-5l-2.5-6c-1.5-4-3.2-7.8-4.4-11.7a2 2 0 0 0-1.3-.4h-1.2Zm-3.6 12-4.6 2.1c.6 1.6 1.5 3.1 2.3 4.7a30.2 30.2 0 0 0 8 10.3c1.6-1 3.3-1.8 5-2.7 1.5-.9 3-2 4.7-2.8a67.7 67.7 0 0 1-15.4-11.6Zm6.3-11.5c1.6 3.8 3 7.7 4.7 11.5.7 2 1.5 3.8 2.4 5.9.7 1.8 1.5 3.7 2.4 5.5a63.6 63.6 0 0 0 16.3 6.4l-1.3-2.8-1.3-2.8-2.6-5.8c-.8-2-1.7-3.9-2.4-6-.3 0-.6-.2-.8-.3-1.8-1-3.4-2.1-4.9-3.4-3-2.4-5.7-5.2-9-7-1.1-.5-2.3-1-3.5-1.2Zm70.4 26.8c-3.7 0-7.4 1.1-11 1.7-1.6.2-3.4.4-5 .4a17 17 0 0 1-3.4-.3h-.4l.6.7.8.8c.2.2.6.5.6.8l.1.2 1-.1c6.8-.8 13.4-2 20-3.8-1-.3-2.1-.4-3.3-.4ZM901.1 437l1.6 3.8a503 503 0 0 0 6 13.5c4.7 1.2 9.5 1.7 14.2 2-2.7-4.5-5.5-9-8-13.7-3-1.7-6.5-2.8-9.8-4-1.3-.4-2.6-1-4-1.6Zm14.2 5.9c2.5 4.6 5 9.1 8 13.4a54.9 54.9 0 0 0 11.4-.3c0-.5-1-1.2-1.2-1.6-.5-.4-.8-.7-1.1-1.3-3-.7-5.6-2.2-8.1-4-3-2-5.8-4.3-8.9-6.2Zm-23.2 5.3-5 2.8-4.8 2.7c3.2 2.5 7 4.1 10.7 6 2.2 1 4.5 2.2 6.7 3.4l4.5-4.2 2.3-2.4 1-1 .5-.6.2-.2c-5.5-1.5-11-3.6-16.1-6.5Zm65.3 4.2a135 135 0 0 1-22.2 4.1l-.3.5-1 2.1c-1.3 2.6-2.6 5.4-4 7.9h1c1.7-.2 3.3-.7 5-1.4 3.2-1.6 6.1-3.9 9-5.9 3.5-2.2 7.1-4.5 10.8-6.3.6-.4 1.3-.6 1.7-1Zm-22.8 4.2a87 87 0 0 1-11.5.3l-4.1 5.1-2.1 2.7-1.8 2.3c1.8-.5 3.5-1 5.1-1h1c1.5 0 3 .2 4.3.4 1.3.3 2.6.6 4 .6 1.1-2.5 2.4-4.8 3.5-7.2l1-1.7.3-.9c0-.2.3-.3.3-.6Zm-25.8-1.8c-2.8 2.8-5.7 5.7-8.7 8.4l4.4 2.2c1.7 1 3.6 1.8 5.6 2l1.2.1c1.2 0 2.3-.2 3.5-.5.7-.7 1.1-1.6 1.8-2.5l2.2-2.8c1.3-1.6 2.5-3.3 4-5l-3.8-.2c-3.5-.3-6.9-.9-10.2-1.7ZM915 360c.3 0 .6.2.6.4a22.2 22.2 0 0 0 7.6 17.5c5.1 4.5 12.1 7.2 15.5 13.6 1.5 3.1 2 6.6 3.5 9.7 1.6 3.5 4.4 5.9 6.6 8.7a34.6 34.6 0 0 1 4.4 34l-1 2c0 .2-.2.2-.3.2-.3 0-.5-.2-.3-.5a34 34 0 0 0-2.8-34.3c-1.4-2-3-3.6-4.6-5.4l-3 13.4-3.1 13.8 2.8 3.1c5 5.2 10.4 9.9 16.2 14l2.1 1.6c.6.4.3.9 0 .9l-.3-.1a.8.8 0 0 1-.6 0h-.3a286 286 0 0 0-10.7 6.4c-3.2 2-6.2 4.4-9.5 6.3a16.8 16.8 0 0 1-9.9 2.3l-5.6-1h-1c-1.4 0-2.8.3-4.2.6-1.7.4-3.4.8-5.1 1a12.5 12.5 0 0 1-5.3-1c-2-.8-4-1.8-5.7-2.8l-6-3c-4-2-8-3.8-11.7-6a35 35 0 0 1-5-4.2 67.9 67.9 0 0 1-12.3-26.8l-.5-3c0-.2.1-.4.3-.4.2 0 .3.1.4.3a6.5 6.5 0 0 0 6 3.9c1 0 2-.2 2.9-.4 1.5-.4 3.2-.8 4.8-.8 1.6 0 3 .4 4.5 1 3.2 1.2 6 3.6 8.7 5.8 1.6 1.3 3.1 2.7 4.9 3.8.7.6 1.6 1 2.4 1.4l.1.2 2.7 1c3.4 1.4 7 2.2 10.4 4 3.2 1.4 6 3.7 8.9 5.8 2.9 2 5.8 4 9 5.2 1.8.5 3.6.7 5.3.7a26 26 0 0 0 3.6-.2c4-.6 8.1-2 12.2-2 1.3 0 2.7.2 4 .6h.3l-5.7-4.3a49.3 49.3 0 0 1-22.5-5.4c-1.7-1-3.3-2.3-4.7-3.9-1.5-1.7-2.7-3.5-4.3-5-2.8-3-6.5-4.7-9-7.7s-3-6.7-4.3-10.3c-1.2-3.8-4.2-6.6-5.6-10.5a15.9 15.9 0 0 1 .2-11c.6-2.1 1.2-4 1.2-6 .1-2-.2-4.2-.2-6.2 0-3.8 1.2-7.3 3.2-10.5s4.7-6 7.4-8.6l2.2-1.8.2-.1Z"/></g><defs><clipPath id="a"><path fill="#fff" d="M0 0h960v540H0z"/></clipPath></defs></svg>