<svg width="960" height="540" fill="none" xmlns="http://www.w3.org/2000/svg"><path clip-rule="evenodd" d="M286.7 481.5a45.4 45.4 0 0 0-24.4 3.2l11.9 4.6c2.9-3.6 6.8-6.3 11.4-7.5.4 0 .7-.2 1.1-.3Zm-.6-.6c-4.7-4.1-10.1-8.2-16.4-8.4-.5 1-1.2 1.8-1.8 2.7l-2 3.1-3.7 5.8c1.3-.6 2.7-1 4.1-1.4 6-1.8 12.4-2.7 18.6-2l1.2.2Zm-16.8-8.5-.5.1c-1.8 0-3.6.5-5.3.9-1.8.3-3.6.6-5.3.4l-5.6-.7c-1.4 0-2.7 0-4 .3a194.5 194.5 0 0 0-5 20.2c-.2.3-.2.7-.3 1.1v.1l5.6-3.9c4-2.6 8.3-4.8 12.8-6.6a179.6 179.6 0 0 1 6-9.5l1.6-2.4Zm4.6 17.2-12.2-4.8a69.9 69.9 0 0 0-18.4 11l.3.2c1.6.3 3 .8 4.6 1.2l9.2 2.3 10 2.6c1.4-3 2.7-6.2 4.1-9 .7-1.2 1.5-2.3 2.4-3.5Zm-6.7 12.9-19-5-4.8-1.2c-.2 0-.6-.1-.7-.3-2.8 2.1-5.6 4.5-8.2 7-3.9 3.9-7.6 8-11 12.4l13 1 13.4 1 2-2c2.6-2.3 5.7-3.4 8.6-5.2 3-1.8 5-4.7 6.7-7.7Zm-19-29-.9.3c-1.7.7-3.3 1.6-4.6 2.9-1.4 1.2-2.7 2.6-4.2 3.8-2.5 2-5.5 2.9-8.2 4.6-.8 3.8-1.8 7.6-2.8 11.4l-2.8 12.2-1.2 6a97.3 97.3 0 0 1 19.3-19.4v-.4l.4-1.4a191.2 191.2 0 0 1 5-20Zm-26.3-30.7-3 2.6a60.8 60.8 0 0 0-3.5 3.8l-3.3 4.2c2.9-1.4 5.9-2.6 8.8-3.6a17.4 17.4 0 0 1-.3-2.3c0-1.6.4-3.2 1.2-4.6Zm-.5-.2c-4.4 1.5-8.7 3.9-12.5 6.7l2.5 4.2 2.9-3.9c2-2.5 4.4-5.2 7-7Zm8.8 42.5-.5.3c-3.1 2.3-4.5 6.3-6.3 9.7-.8 1.8-2 3.3-3.3 4.7-1.2 1.6-2.7 3.1-3.7 5-2 3.5-3 7.7-3.4 11.9a57 57 0 0 0 0 13.7c1.8-3.3 3.9-6.6 6-9.8l3.8-5.2a502 502 0 0 1 5.7-24.3c.5-2 1-4 1.7-6Zm-7.3-29.4c-.2-1.3-.6-2.5-1.1-3.8l-.8-2c-3.1 1-6.3 2.4-9.2 4-1 1.2-1.8 2.5-2.6 3.7a73.7 73.7 0 0 0-6.1 13.1l4.3-2.9 5.2-3.3c3.4-2.2 6.8-4.4 10.3-6.2.2-.5.2-.9 0-1.4v-1.2Zm-11.7-1.8-2.6-4.4-4.1 3a29.4 29.4 0 0 0-8.4 9.6l3.3 4.6 3.3 4.4a70.4 70.4 0 0 1 8.5-17.2Zm11.7 4.6-10 6.4a127 127 0 0 0-5.1 3.3c-1.6 1-3.3 2-4.9 3.3a68.7 68.7 0 0 0-3.5 17.3c1-.5 1.6-1.2 2.4-1.7l2.5-1.8 5-3.4c1.6-1.1 3.3-2.3 5.2-3.3a27.8 27.8 0 0 1 2.6-6.3c1.8-3.3 4-6.5 5-10.1.5-1.2.7-2.5.8-3.7Zm-14.5 74.8c-.5-3.7-2.1-7.3-3.2-10.8a37.2 37.2 0 0 1-1.4-8.5v-.4l-.5.8c-.3.2-.5.6-.7 1l-.6.6-.2.1.2 1c1.7 6.7 4 13.2 6.6 19.6 0-1.1 0-2.3-.2-3.4Zm6-54.4c-1 .8-2.3 1.4-3.3 2.2-1.3 1-2.6 1.8-4 2.7l-7.7 5.4c-.4 4.8-.2 9.7.2 14.5a260 260 0 0 1 11.6-10c1.2-3.4 1.6-7 2.3-10.5l.8-4.3Zm-3.4 15.2c-4 3.2-7.8 6.4-11.3 10a61.5 61.5 0 0 0 2 11.4c.5-.1 1-1.2 1.3-1.4l1-1.4c.2-3 1.3-5.9 2.5-8.7 1.5-3.3 3.2-6.4 4.5-9.8v-.1Zm-8.5-22.6c-1.2-1.4-2.1-3-3.2-4.6l-3.3-4.4c-1.8 3.5-2.8 7.7-4 11.6-.7 2.4-1.3 4.9-2.1 7.3l4.5 3.8 2.6 2 1.1 1 .6.4.2.1c.6-5.8 1.7-11.6 3.6-17.2Zm6 66.3c-3-7-5.5-14.3-7.2-21.7l-.5-.2-2.1-.7-8-2.8.2 1a19 19 0 0 0 2 4.7c2 3 4.5 5.6 6.9 8.3a107 107 0 0 1 7.4 9.8l1.2 1.6Zm-7.4-22.2a95 95 0 0 1-2-11.6c-1.8-1-3.5-2.3-5.4-3.4-.8-.5-1.9-1-2.7-1.7l-2.4-1.4c.6 1.7 1.3 3.3 1.6 5l.2 1c.3 1.5.2 3 .2 4.3l.1 4.2 7.2 2.4 1.8.6.8.3.6.3Zm-2.2-26.3c-3-2.4-6.1-4.8-9-7.4-.6 1.5-1 3-1.5 4.7a19 19 0 0 0-1 7c.2 1.3.6 2.4 1 3.6l2.7 1.4c1 .5 2 1.2 2.9 1.8 1.7 1 3.4 2 5.2 3.3l-.4-4c-.1-3.4-.1-7 .1-10.4Zm89.2-7.8c0 .3-.1.6-.4.6-6.3.9-11.8 4.5-15 10.2-3.5 5.9-5 13.4-10.5 17.7-2.6 2-5.8 3-8.5 5-3 2.1-4.8 5.3-7.1 8a30.3 30.3 0 0 1-31 9.5l-2-.7a.4.4 0 0 1-.2-.4c0-.2.1-.5.4-.4a29.8 29.8 0 0 0 31.6-7.9c1.5-1.7 2.8-3.6 4.3-5.4l-13-1-13.3-1-2.5 3.2c-4 5.8-7.6 12-10.6 18.4l-1.1 2.4c-.3.6-.8.4-.9 0l.1-.2a.9.9 0 0 1-.2-.6v-.3l-7.5-9.9c-2.4-2.8-5-5.5-7.2-8.5a17.9 17.9 0 0 1-3.7-9.7v-6.7c-.3-1.4-.7-2.8-1.3-4.2-.5-1.7-1.2-3.3-1.6-5l-.1-.5c-.3-1.7-.2-3.3.2-5 .4-2 1-4.1 1.7-6.1l2-6.5c1.1-4.2 2.3-8.6 3.9-12.7.8-1.9 1.9-3.8 3-5.6a62.2 62.2 0 0 1 23-16.4c1-.3 2-.6 2.8-1 .3 0 .5.1.5.3 0 .2 0 .4-.2.5a6.5 6.5 0 0 0-2.7 4.4 7 7 0 0 0 0 2.1c.1 1 .4 2 .8 3 .5 1.4 1.2 3 1.4 4.7.2 1.5 0 3-.2 4.6-.7 3.5-2.5 6.7-4.2 9.7-1 1.7-2 3.5-2.8 5.4l-1 2.6v.2l-.7 2.9c-.7 3.6-1 7.4-2 11-1 3.4-2.6 6.7-4.1 9.8a40.4 40.4 0 0 0-3.5 9.9c-.2 1.8-.2 3.6 0 5.4l.9 3.6c1.1 4 3 7.8 3.6 12 .2 1.3.2 2.7 0 4v.3l3.3-6.4a54 54 0 0 1 1.6-23.3c.7-2 1.7-3.7 3-5.4 1.3-1.7 2.8-3.2 4-5 2.3-3.3 3.3-7.2 5.7-10.3 2.5-2.9 5.9-4 9-5.8 3.4-1.8 5.6-5.2 9-7.1a14 14 0 0 1 10.3-1.5c2 .3 3.8.5 5.8.3 1.9-.2 3.8-.8 5.6-1.1 3.6-.6 7 0 10.3 1.6 3.3 1.5 6.3 3.8 9 6.2l2.1 1.9.2.2ZM791.6 0s.2 0 .2.2a55.1 55.1 0 0 0 38.8 22.4c3.6.4 7.3.4 11 .8 6.1.6 11.6 2.7 16.8 6.2 10.2 6.8 17.6 17.1 26.3 25.7a88 88 0 0 0 33.1 21.4 56.3 56.3 0 0 0 17.4 2.8A48 48 0 0 0 960 73c-7.4 5-16 7-24.7 7-4 0-8.1-.4-12-1.3a78.2 78.2 0 0 1-34.3-18.6c-5-4.3-9.4-9-13.7-13.8C871 41.6 866.8 37 862 33a39 39 0 0 0-16-8.4c-7-1.5-14.4-.7-21.5-2A52.6 52.6 0 0 1 791.2.5c-.2-.3.1-.6.4-.6ZM134 460.6l.6.8c1 1.7.5 4-.7 5.5-2.4 3.4-6.7 3-10.3 2 .3-3.7 1.6-7.7 5-9 1.7-1 4-.7 5.4.7Zm.5-.3c-.3-.4-.7-.7-1.1-.9-4-2-7.7 1-9.3 4.7-.6 1.5-1 3-1.1 4.6l-.8-.2A71.3 71.3 0 0 1 99 454c-6.9-5.8-13.6-12-21.2-16.6-7-4.3-14.6-7.3-22.5-9.2a115.6 115.6 0 0 0-54.6 1c-.4.1-.4.5-.2.7l.4.1c17-4 35-5.4 52.1-1.8 8.5 2 16.7 5 24.1 9.6 8.3 5 15.4 11.8 22.8 18a64.4 64.4 0 0 0 23 13.7 29 29 0 0 0 .7 7.9 58 58 0 0 0 14.8 28c13.2 13.7 32.2 18.5 47.1 30 2 1.4 3.8 3 5.5 4.7.3 0 .6-.3.4-.5-13.4-13.4-32-18.2-46.5-29.8a58.5 58.5 0 0 1-21-36.8c-.2-1-.2-2.2-.2-3.4 3.7 1 8 1.2 10.7-2 1.7-2.2 2-5.5.2-7.4Z" stroke="#7A6A95" stroke-miterlimit="10" stroke-linejoin="round"/></svg>