<svg width="960" height="540" fill="none" xmlns="http://www.w3.org/2000/svg"><g clip-path="url(#a)" clip-rule="evenodd" stroke="#E3DDEE" stroke-miterlimit="10" stroke-linejoin="round"><path d="m168.5 540-.3-.1a55.2 55.2 0 0 0-38.7-21.7c-3.6-.3-7.4-.3-11-.7-6.2-.6-11.7-2.6-16.9-6-10.1-6.5-17.6-16.4-26.3-24.7a88.6 88.6 0 0 0-33.1-20.5 58.3 58.3 0 0 0-17.4-2.7A49.6 49.6 0 0 0 0 469.7a46.5 46.5 0 0 1 24.8-6.7c4 0 8.1.4 12.1 1.3a79.2 79.2 0 0 1 34.3 17.9c4.9 4.1 9.3 8.7 13.6 13.3 4.3 4.4 8.4 8.9 13.3 12.7 4.7 3.7 10 6.8 15.9 8 7.1 1.5 14.5.7 21.6 2a53 53 0 0 1 33.3 21.3c.2.2-.1.5-.4.5ZM911.2 429.2l1 5.4a81 81 0 0 0 1 5.2 65 65 0 0 0-18.1-4.7c-.5-1.6-1-3.1-1.3-4.7 1.5-.4 3.1-.8 4.8-1 4-.7 8-1.3 12-.4l.6.2Zm.3 0c3.8 1.1 7.4 3 11 4.6l6.7 3.2-.3 5.9-.3 3.2-.1 1.4-.1.6v.4a71.2 71.2 0 0 0-14.7-8.5c-.2-1.7-.8-3.6-1.2-5.4l-1-5.3Zm-18 1.3c.3 1.6.7 3.1 1.2 4.6l-4.8-.3c-3.2-.2-6.6-.2-9.8.7 4.1-2.3 8.6-4 13.3-5Zm.6 5c-3 1.2-5.8 2.6-8.6 4.3-.4-.6-.7-1.2-1.3-1.7a8.1 8.1 0 0 0-4.1-2.1h-.1a33.1 33.1 0 0 1 8.8-.8c1.7 0 3.5 0 5.3.3Zm35.4 1.7 4.4 2c1.7.8 3.5 1.7 5 3 1 1.1 1.9 2.4 2.6 3.8l-.7 2.9-.7 3.3-1.2 6-2.5-2.8c-2.5-2.4-5-4.7-7.7-6.6.4-3.9.7-7.8.8-11.6Zm-24.2.4c2.5.6 5 1.5 7.3 2.5l-5 1.3-6 1.8c-3.7 1.1-7.6 2.2-11.3 3.7l-1-.9c-1.1-1.1-2-2.6-2.7-4.1-.4-.6-.6-1.3-1-1.8a72 72 0 0 1 9-4.5l4.4.6c2.1.3 4.2.8 6.3 1.4Zm8 2.6 5.2 2.4c3.4 1.7 6.6 3.8 9.6 6l-3 .7-2.9.8-5.8 1.5c-2 .6-4 1-5.8 1.8a35.5 35.5 0 0 0-6.2-2c-2.7-.6-5.3-1-8-1.7l-2.8-1a21 21 0 0 1-3.1-1.8c3.8-1 7.6-2.3 11.4-3.4l5.7-1.7 5.7-1.6Zm15.2 8.8c3.8 2.9 7.1 6 10.3 9.5-5 .6-10 1.3-15 2.3-3.3-1.3-6.2-3.3-9.2-5.1l-3.5-2 3.7-1 4.5-1.3 9.2-2.4Zm13.2-2.5c.7 1.4 1.4 3 2.4 4.3 1 1.5 2.3 2.6 3.6 3.7 1 .9 2.1 1.8 3 2.8l-3 7c-.4.5-.6 1.1-.8 1.7l-.4.8-.3.6c-2.1-3-4.5-6-7-8.9l1.3-6.2c.2-1 .3-2.1.6-3.1l.6-2.7ZM939 459c2.5 3 4.8 6 6.8 9-.4.2-1.4 0-1.8-.2h-1.7a26 26 0 0 0-8-3.7l-3.4-1c-2.3-.6-4.5-1.2-6.7-2h-.1c5-.9 10-1.7 14.9-2Zm7.1 9.3.6.8c3.7 5.6 6.9 11.5 9.7 17.5-3.7-2.9-5.6-7.7-8-11.7-1.3-2.4-3-4.7-5-6.5l-.4-.2h1l1 .1h1.1Zm4.8-10.6.5.8a14 14 0 0 1 2 4.4c1 3.4 1.1 7 1.5 10.5.5 4 1.1 8 2 12l.5 1.9a148 148 0 0 0-11-19.4l.2-.4 1-2a177 177 0 0 0 3.3-7.8Zm-21.3 14.5c3.4 1 6.5 2.9 9.4 4.9 3 2.2 6 4.7 8.5 7.3l1.3 1.4a211 211 0 0 0-17.3-2.2 506.6 506.6 0 0 0-26.7-14h.6c3.8-1 7.5.6 11.1 1.4 1.8.4 3.8.6 5.7.6 2 0 4 0 6 .3.5 0 1 .2 1.4.3Zm-25-2.5c3.4 1.9 6.8 3.6 10.2 5.3l10.7 5.7 5 2.9a110.6 110.6 0 0 0-26.8 1.9l-.3-.1c-.4-.4-.8-.5-1.2-.7a210.9 210.9 0 0 0-17.6-9.1l.6-.4a13 13 0 0 1 5.1-1.7c1.9-.3 3.8-.2 5.6-.6 3-.6 5.8-2.3 8.8-3.2Zm-20.4 6.1c5.5 2.5 10.8 5.2 16 8.1l1.7 1.1 1 .6c-2 .5-4.4 1-6.5 1.7a91 91 0 0 0-13.3 5.3l-7.2-1.1-3.6-.5-2.7-.3.3-.2c1.2-1.3 2.7-2.4 4.1-3.5 1.4-1.2 2.8-2.4 3.9-3.8 1.2-1.4 2.1-3 3.3-4.5.9-1.2 1.8-2 3-2.9Zm46.9 8.5-8 10.3c-2.7 3.5-5.5 7-8 10.6-1 0-2 0-3 .2-3.3.5-6.1 2.1-9.3 3.1a19 19 0 0 1-10 0l9-17.3 2.3-4.3c.2-.3.4-.5.2-.8a98.4 98.4 0 0 1 26.8-1.8Zm-27.5 1.8s.2.2.1.3l-.2.3-2.1 4.2-4.5 8.4-4.7 9c-.6 0-1.1-.2-1.6-.4l-6.1-1.8c-.5 0-1-.2-1.6-.4-1.4-.3-2.7-.4-4-.5l4.6-12.2a84.1 84.1 0 0 1 20.1-6.9Zm-21 6.9-3.9 2.1a45.4 45.4 0 0 0-14.3 13.7c.1-6.2.8-13 5-17.7 1 .3 2 .3 3 .4l3.6.5 6.6 1Zm.5.4c-1.4 3.9-3 7.9-4.6 11.8a22.1 22.1 0 0 0-14 4.4 47.8 47.8 0 0 1 18.6-16.2Zm28.3-64.7a30.7 30.7 0 0 0-10.2-.3c-7.4 1-14.7 3-21.3 6.5l-2.4 1.3c-.3.2-.1.6.1.7h.2c1.2-.3 2.3-.2 3.4 0l1.6.7c1.5 1 2.4 2.4 3 4 .8 1.4 1.5 3 2.5 4.1 1 1.1 2.2 2 3.5 2.8 1.7 1 3.6 1.7 5.4 2.2l4.4 1a48.8 48.8 0 0 1 8.4 2.4c.9.3 1.8.9 2.6 1.4 3 1.8 6 4 9.3 5.6a48 48 0 0 0 8 2.7l1.8.5c3.2 1 6.6 2 9.4 3.8a20 20 0 0 1 6 6.4c2.7 4.5 4.7 9.9 9 13.1l.2.2-6.8-1.7a49.8 49.8 0 0 0-19.6-14.3c-1.3-.4-2.7-.6-4.1-.7-2-.2-4.2 0-6.4-.2-3.7-.5-7.3-2.1-11.2-2.2-3.7-.2-6.8 1.7-10.1 3-3.6 1.3-7.5.7-11.2 2a15.2 15.2 0 0 0-7.9 7c-1 1.5-2.2 3.2-3.6 4.5-1.5 1.3-3 2.3-4.6 3.5a18.8 18.8 0 0 0-5.7 8.7c-1.1 3.4-1.4 7.1-1.6 10.8l-.1 2.7c0 .2.2.4.3.4h.4a21.4 21.4 0 0 1 20.3-4.1l7.1 2c3.2 1 6.5 1.5 9.9.8 3.2-.6 6.1-2.4 9.2-3.2 3.5-.8 7.1 0 10.6 0a31 31 0 0 0 28.5-19c.1-.4 0-.6-.3-.7-.1 0-.3 0-.4.2a31.2 31.2 0 0 1-26.8 18.5l-6.8-.3c2.8-3.4 5.3-6.9 8-10.5l8.1-10.5 4.1.4c7 .6 13.7 2 20.4 3.8l2.4.7c.5 0 .7-1 .2-1.1-.1-.2-.1-.4-.3-.5l-.3-.2c-.8-4-1.5-8-2-12-.5-3.6-.7-7.3-1.4-11-.6-3.3-2-6.4-4.5-8.8L946 452a13.9 13.9 0 0 1-3-4.3c-.7-1.5-1.4-3-2.4-4.4-1-1.5-2.5-2.5-4-3.5-1.7-1-3.6-1.7-5.6-2.6l-6-2.7c-3.8-1.9-7.6-3.8-11.7-5.2a22 22 0 0 0-2-.7Z"/><path d="m756.4 540 .3-.1a55.2 55.2 0 0 1 38.8-21.7c3.6-.3 7.3-.3 11-.7 6-.6 11.6-2.6 16.8-6 10.2-6.5 17.6-16.4 26.3-24.7a88.5 88.5 0 0 1 33.1-20.5 58.3 58.3 0 0 1 17.4-2.7 49.6 49.6 0 0 1 24.8 6.1A46.5 46.5 0 0 0 900 463c-4 0-8.1.4-12 1.3a79.2 79.2 0 0 0-34.3 17.9c-5 4.1-9.4 8.7-13.7 13.3-4.2 4.4-8.4 8.9-13.2 12.7-4.7 3.7-10.1 6.8-16 8-7 1.5-14.4.7-21.5 2a53 53 0 0 0-33.3 21.3c-.2.2 0 .5.3.5Z"/></g><defs><clipPath id="a"><path fill="#fff" d="M0 0h960v540H0z"/></clipPath></defs></svg>
